<!DOCTYPE svg PUBLIC "-//W3C//DTD SVG 1.1//EN" "http://www.w3.org/Graphics/SVG/1.1/DTD/svg11.dtd">
<!-- Uploaded to: SVG Repo, www.svgrepo.com, Transformed by: SVG Repo Mixer Tools -->
<svg fill="#ffffff" width="199px" height="199px" viewBox="-1.28 -1.28 34.56 34.56" version="1.1" xmlns="http://www.w3.org/2000/svg" transform="matrix(-1, 0, 0, 1, 0, 0)" stroke="#ffffff">
<g id="SVGRepo_bgCarrier" stroke-width="0"/>
<g id="SVGRepo_tracerCarrier" stroke-linecap="round" stroke-linejoin="round" stroke="#CCCCCC" stroke-width="1.8559999999999999"> <title>bars-sort</title> <path d="M30 7.249h-28c-0.414 0-0.75 0.336-0.75 0.75s0.336 0.75 0.75 0.75v0h28c0.414 0 0.75-0.336 0.75-0.75s-0.336-0.75-0.75-0.75v0zM18 15.25h-16c-0.414 0-0.75 0.336-0.75 0.75s0.336 0.75 0.75 0.75v0h16c0.414 0 0.75-0.336 0.75-0.75s-0.336-0.75-0.75-0.75v0zM8.053 23.25h-6.053c-0.414 0-0.75 0.336-0.75 0.75s0.336 0.75 0.75 0.75v0h6.053c0.414 0 0.75-0.336 0.75-0.75s-0.336-0.75-0.75-0.75v0z"/> </g>
<g id="SVGRepo_iconCarrier"> <title>bars-sort</title> <path d="M30 7.249h-28c-0.414 0-0.75 0.336-0.75 0.75s0.336 0.75 0.75 0.75v0h28c0.414 0 0.75-0.336 0.75-0.75s-0.336-0.75-0.75-0.75v0zM18 15.25h-16c-0.414 0-0.75 0.336-0.75 0.75s0.336 0.75 0.75 0.75v0h16c0.414 0 0.75-0.336 0.75-0.75s-0.336-0.75-0.75-0.75v0zM8.053 23.25h-6.053c-0.414 0-0.75 0.336-0.75 0.75s0.336 0.75 0.75 0.75v0h6.053c0.414 0 0.75-0.336 0.75-0.75s-0.336-0.75-0.75-0.75v0z"/> </g>
</svg>